<?xml version="1.0" ?><svg data-name="Layer 1" id="Layer_1" viewBox="0 0 100 100" xmlns="http://www.w3.org/2000/svg"><defs><style>.cls-1,.cls-2,.cls-3{fill:none;stroke:#000;}.cls-1,.cls-3{stroke-miterlimit:10;}.cls-2,.cls-3{stroke-linecap:round;}.cls-2{stroke-linejoin:round;}</style></defs><title/><path class="cls-1" d="M73.56,72.67v-.06c0-1.26-1.38-3-2.35-3.66"/><path class="cls-1" d="M62.89,77.22a8.8,8.8,0,0,1-3.35,5,15.09,15.09,0,0,1-8.25,2,6.92,6.92,0,0,1-4.72-3.17h0a48.84,48.84,0,0,1-4.25-8.3c-8-20.26-9.22-36.41-3.91-50.51a8.94,8.94,0,0,1,5.8-5.43c2.7-.82,9.85,1.12,12.14,2.76l2.49,1.78a10.67,10.67,0,0,1,4.78,8.14"/><path class="cls-1" d="M60.74,44.55v-4.5a1.6,1.6,0,0,1,1.73-1.44h.07a43.08,43.08,0,0,0,10.94,0l.14,0h.1a1.59,1.59,0,0,1,1.73,1.44v4.51"/><path class="cls-1" d="M60.68,54.21v5.32A1.66,1.66,0,0,0,62.47,61l2.28.31a26.09,26.09,0,0,0,7.59-.08L73.91,61c1.13-.34,2-.67,2-1.51V54.2"/><path class="cls-1" d="M77.27,45.85v7a1.4,1.4,0,0,1-1.38,1.3h-.13a87.89,87.89,0,0,1-14.42,0l-.72,0a1.42,1.42,0,0,1-1.5-1.31v-7a1.41,1.41,0,0,1,1.5-1.3l.72.06a86.79,86.79,0,0,0,14.42-.06h.13A1.4,1.4,0,0,1,77.27,45.85Z"/><path class="cls-1" d="M62.69,38.61c0-.34,0-.67,0-1v-4a7.49,7.49,0,0,1,.84-3.73c.06-.1,3.13-.14,5.79-.14a3.87,3.87,0,0,1,3.91,3.8v4.06a8.67,8.67,0,0,1-.05,1"/><path class="cls-1" d="M74.27,67.25l-1.24,0a2.65,2.65,0,0,0-2,2.62L71,76a2.38,2.38,0,0,1-1.3,2.26,1.38,1.38,0,0,1-.57.11H64.46a1.85,1.85,0,0,1-1.62-1.19A2.83,2.83,0,0,1,62.59,76V61"/><circle class="cls-1" cx="67.21" cy="74.59" r="1.32"/><path class="cls-2" d="M72.73,80l-.39,1.41a31.51,31.51,0,0,0,1.22-5.82V67.51l.72-.26V60.93"/><path class="cls-3" d="M27.09,43.3a58.78,58.78,0,0,1,3.64-23.5,18,18,0,0,1,11.68-11"/><path class="cls-3" d="M28.73,56a81.35,81.35,0,0,1-1.36-8.77"/><path class="cls-1" d="M72.73,80a18.25,18.25,0,0,1-6.84,10.56c-3,2.34-9.64,3.81-13.4,3.81a17.06,17.06,0,0,1-14.38-7.94l-2.58-4.1a4,4,0,0,1-.36-.68C24.3,56.58,22.35,36.59,29.05,18.79A18.86,18.86,0,0,1,41.3,7.31C47,5.58,57.77,9.61,62.61,13.06l2.49,1.78A25,25,0,0,1,75.17,31.69,5,5,0,0,1,73,36.64"/><circle class="cls-1" cx="67.68" cy="34.16" r="1.32"/><path class="cls-1" d="M63,26.62h2.71a4.5,4.5,0,0,0,4.18-6.19L69,18.32"/><path class="cls-1" d="M61.1,80.76h2.79a5,5,0,0,1,4.92,6.13l-.28,1.26"/></svg>